<svg class="SVGBGI" xmlns="http://www.w3.org/2000/svg" viewBox="0 0 24 24"><circle class="accent" cx="12" cy="13" r="7"></circle><path class="outline" d="M22.05 6.45a11.72 11.72 0 0 0-3.51-3.5c-1.11-.72-2.2.95-1.09 1.68a9.8 9.8 0 0 1 2.92 2.92 1 1 0 0 0 1.38.29 1 1 0 0 0 .29-1.38ZM3.97 7.04a9.85 9.85 0 0 1 2.58-2.42c1.11-.72 0-2.4-1.09-1.67a12 12 0 0 0-3.51 3.51 1 1 0 0 0 .84 1.55c.67 0 .86-.52 1.19-.96ZM15 12h-2V9c0-1.32-2-1.32-2 0v4a1 1 0 0 0 1 1h3c.55 0 1-.45 1-1s-.45-1-1-1ZM18.73 17.31A8 8 0 1 0 4 13c0 1.59.47 3.07 1.27 4.31l-2 2c-.93.93.48 2.35 1.41 1.41l1.86-1.86a7.97 7.97 0 0 0 10.88 0c2 2 2.03 2.15 2.56 2.15a1 1 0 0 0 .71-1.71l-2-2ZM12 19a6 6 0 1 1 0-12A6 6 0 0 1 12 19Z"></path><path class="solid" d="M22.05 6.45a11.72 11.72 0 0 0-3.51-3.5c-1.11-.72-2.2.95-1.09 1.68a9.8 9.8 0 0 1 2.92 2.92 1 1 0 0 0 1.38.29 1 1 0 0 0 .29-1.38ZM6.55 4.62c1.11-.72 0-2.4-1.09-1.67a12 12 0 0 0-3.51 3.51 1 1 0 0 0 .84 1.55c.67 0 .86-.52 1.19-.96a9.85 9.85 0 0 1 2.58-2.42ZM20.71 19.29l-2-2A8 8 0 1 0 4 13c0 1.59.47 3.07 1.27 4.31l-2 2c-.93.93.48 2.35 1.41 1.41l1.86-1.86a7.97 7.97 0 0 0 10.88 0l1.86 1.86c.93.93 2.35-.48 1.41-1.41ZM15 14h-3a1 1 0 0 1-1-1V9c0-1.32 2-1.32 2 0v3h2c.55 0 1 .45 1 1s-.45 1-1 1Z"></path></svg>
